<?xml version="1.0" encoding="utf-8"?>
<!-- Generator: Adobe Illustrator 25.2.3, SVG Export Plug-In . SVG Version: 6.00 Build 0)  -->
<svg version="1.1"
	 id="svg6068" xmlns:cc="http://web.resource.org/cc/" xmlns:dc="http://purl.org/dc/elements/1.1/" xmlns:inkscape="http://www.inkscape.org/namespaces/inkscape" xmlns:ns1="http://sozi.baierouge.fr" xmlns:rdf="http://www.w3.org/1999/02/22-rdf-syntax-ns#" xmlns:sodipodi="http://sodipodi.sourceforge.net/DTD/sodipodi-0.dtd" xmlns:svg="http://www.w3.org/2000/svg"
	 xmlns="http://www.w3.org/2000/svg" xmlns:xlink="http://www.w3.org/1999/xlink" x="0px" y="0px" viewBox="0 0 460.1 114.4"
	 style="enable-background:new 0 0 460.1 114.4;" xml:space="preserve">
<style type="text/css">
	.st0{fill-rule:evenodd;clip-rule:evenodd;fill:url(#path6080_1_);stroke:#000000;stroke-width:3;}
	.st1{fill-rule:evenodd;clip-rule:evenodd;fill:url(#path7051_1_);stroke:#000000;stroke-width:3;}
	.st2{fill-rule:evenodd;clip-rule:evenodd;fill:#BB00C9;stroke:#000000;stroke-width:3;}
	.st3{fill-rule:evenodd;clip-rule:evenodd;fill:none;}
	.st4{fill:#BB00C9;}
	.st5{font-family:'Montserrat-Medium';}
	.st6{font-size:21px;}
</style>
<sodipodi:namedview  bordercolor="#666666" borderopacity="1.0" gridtolerance="10000" guidetolerance="10" id="base" inkscape:current-layer="layer1" inkscape:cx="375" inkscape:cy="5.7142857" inkscape:document-units="px" inkscape:pageopacity="0.0" inkscape:pageshadow="2" inkscape:window-height="601" inkscape:window-width="842" inkscape:window-x="24" inkscape:window-y="30" inkscape:zoom="0.7" objecttolerance="10" pagecolor="#ffffff">
	</sodipodi:namedview>
<g id="layer1" transform="translate(-41.357 -349.43)" inkscape:groupmode="layer" inkscape:label="Layer 1">
	
		<radialGradient id="path6080_1_" cx="-99.4941" cy="3124.9539" r="230.07" gradientTransform="matrix(-1.5278 0.6271 9.443300e-02 0.23 -54.2095 -324.1349)" gradientUnits="userSpaceOnUse">
		<stop  offset="0" style="stop-color:#9AA2A2"/>
		<stop  offset="1" style="stop-color:#DAD2D2"/>
	</radialGradient>
	
		<path id="path6080" sodipodi:cx="271.42856" sodipodi:cy="422.36218" sodipodi:rx="228.57143" sodipodi:ry="40" sodipodi:type="arc" class="st0" d="
		M500,422.4c0,22.1-102.3,40-228.5,40s-228.6-17.9-228.6-40c0,0,0,0,0,0c0-22.1,102.3-40,228.5-40S500,400.3,500,422.4
		C500,422.4,500,422.4,500,422.4z"/>
	
		<radialGradient id="path7051_1_" cx="-43.7885" cy="2957.229" r="230.07" gradientTransform="matrix(-1.3353 0.7389 0.1204 0.2176 -75.9473 -294.4633)" gradientUnits="userSpaceOnUse">
		<stop  offset="0" style="stop-color:#9AA2A2"/>
		<stop  offset="1" style="stop-color:#DAD2D2"/>
	</radialGradient>
	
		<path id="path7051" sodipodi:cx="285" sodipodi:cy="356.64789" sodipodi:rx="110.71429" sodipodi:ry="27.142857" sodipodi:type="arc" class="st1" d="
		M390,378.1c0,15-49.6,27.1-110.7,27.1c-61.1,0-110.7-12.1-110.7-27.1c0,0,0,0,0,0c0-15,49.6-27.1,110.7-27.1
		C340.4,350.9,390,363.1,390,378.1C390,378.1,390,378.1,390,378.1z"/>
	
		<path id="path8066" sodipodi:cx="180.71428" sodipodi:cy="420.21933" sodipodi:rx="9.2857141" sodipodi:ry="5" sodipodi:type="arc" class="st2" d="
		M190,420.2c0.1,2.8-4,5-9.2,5.1c-5.1,0-9.3-2.2-9.4-4.9c0,0,0-0.1,0-0.1c-0.1-2.8,4-5,9.2-5.1c5.1,0,9.3,2.2,9.4,4.9
		C190,420.1,190,420.2,190,420.2z"/>
	
		<path id="path8070" sodipodi:cx="180.71428" sodipodi:cy="420.21933" sodipodi:rx="9.2857141" sodipodi:ry="5" sodipodi:type="arc" class="st2" d="
		M287.9,432.4c0.1,2.8-4,5-9.2,5.1s-9.3-2.2-9.4-4.9c0,0,0-0.1,0-0.1c-0.1-2.8,4-5,9.2-5.1c5.1,0,9.3,2.2,9.4,4.9
		C287.9,432.3,287.9,432.3,287.9,432.4z"/>
	
		<path id="path8072" sodipodi:cx="180.71428" sodipodi:cy="420.21933" sodipodi:rx="9.2857141" sodipodi:ry="5" sodipodi:type="arc" class="st2" d="
		M380.7,420.9c0.1,2.8-4,5-9.2,5.1s-9.3-2.2-9.4-4.9c0,0,0-0.1,0-0.1c-0.1-2.8,4-5,9.2-5.1c5.1,0,9.3,2.2,9.4,4.9
		C380.7,420.9,380.7,420.9,380.7,420.9z"/>
</g>
<rect x="142.8" y="11.9" class="st3" width="220.7" height="34.1"/>
<text transform="matrix(1 0 0 1 142.8224 36.7239)" class="st4 st5 st6">SPACE PROGRAM</text>
</svg>
