<svg xmlns="http://www.w3.org/2000/svg" xmlns:xlink="http://www.w3.org/1999/xlink" viewBox="0 0 460.1 200">
  <defs>
    <style>
      .a, .b, .c {
        stroke: #000;
        stroke-width: 3px;
        fill-rule: evenodd;
      }

      .a {
        fill: url(#a);
      }

      .b {
        fill: url(#b);
      }

      .c, .d {
        fill: #bb00c9;
      }

      .d {
        font-size: 36px;
        font-family: Montserrat-Medium, Montserrat;
        font-weight: 500;
        letter-spacing: 0.2em;
      }

      .e {
        letter-spacing: 0.15em;
      }

      .f {
        letter-spacing: 0.19em;
      }

      .g {
        letter-spacing: 0.2em;
      }

      .h {
        letter-spacing: 0.19em;
      }
    </style>
    <radialGradient id="a" cx="-121.08" cy="3095.45" r="230.07" gradientTransform="matrix(-1.53, 0.63, 0.09, 0.23, -125.75, -567.24)" gradientUnits="userSpaceOnUse">
      <stop offset="0" stop-color="#9aa2a2"/>
      <stop offset="1" stop-color="#dad2d2"/>
    </radialGradient>
    <radialGradient id="b" cx="-57.86" cy="2910.39" r="230.07" gradientTransform="matrix(-1.34, 0.74, 0.12, 0.22, -130.46, -537.3)" xlink:href="#a"/>
  </defs>
  <g>
    <path class="a" d="M458.6,158.9c.1,22.1-102.2,40-228.5,40S1.5,181,1.5,158.9h0c0-22.1,102.3-40,228.5-40s228.6,17.9,228.6,40Z"/>
    <path class="b" d="M348.6,114.6c0,15-49.5,27.2-110.7,27.2s-110.7-12.2-110.7-27.1h0c0-14.9,49.6-27.1,110.7-27.1s110.7,12.2,110.7,27.1Z"/>
    <path class="c" d="M148.6,156.8c.1,2.8-4,5-9.1,5.1s-9.4-2.2-9.4-5h0c-.1-2.8,4-5,9.1-5.1s9.4,2.2,9.4,5Z"/>
    <path class="c" d="M246.5,168.9c.1,2.8-4,5.1-9.2,5.1s-9.3-2.2-9.4-4.9v-.2c0-2.7,4.1-5,9.2-5s9.3,2.1,9.4,4.9Z"/>
    <path class="c" d="M339.4,157.5c0,2.8-4.1,5-9.2,5.1s-9.4-2.2-9.4-5h0c-.1-2.8,4-5,9.2-5.1s9.3,2.2,9.4,5Z"/>
  </g>
  <text class="d" transform="translate(20.5 43.8)">S<tspan class="e" x="29.6" y="0">P</tspan><tspan class="f" x="61.1" y="0">A</tspan><tspan class="g" x="94.3" y="0">CE </tspan><tspan class="h" x="175.8" y="0">P</tspan><tspan x="208.6" y="0">ROGRAM</tspan></text>
</svg>
